<svg width="1012" height="100" viewBox="0 0 1012 100" fill="none" xmlns="http://www.w3.org/2000/svg">
<rect width="1012" height="100" fill="white"/>
<path fill-rule="evenodd" clip-rule="evenodd" d="M516.171 16.7991C518.5 16.7991 520.473 18.5111 520.803 20.8159L528.952 77.8609C529.355 80.6793 527.168 83.2008 524.321 83.2008H520.999C518.665 83.2008 516.687 81.4796 516.366 79.1672L516.036 76.8C515.715 74.4876 513.737 72.7663 511.403 72.7663H501.335C499 72.7663 497.023 74.4876 496.701 76.8L496.372 79.1672C496.05 81.4796 494.073 83.2008 491.738 83.2008H487.679C484.832 83.2008 482.645 80.6793 483.048 77.8609L491.197 20.8159C491.526 18.5111 493.5 16.7991 495.829 16.7991H516.171ZM512.061 40.2117H508.665V33.8009C508.665 33.0655 508.365 32.3602 507.831 31.8402C507.297 31.3202 506.573 31.0281 505.818 31.0281H500.678C499.923 31.0281 499.199 31.3202 498.665 31.8402C498.131 32.3602 497.831 33.0655 497.831 33.8009V44.7499C497.831 45.4696 498.118 46.1612 498.631 46.6787C499.145 47.1961 499.845 47.4988 500.583 47.5228L503.341 47.606V60.398C503.342 60.8437 503.501 61.2753 503.791 61.6203C504.081 61.9653 504.484 62.2025 504.932 62.2921C505.38 62.3817 505.846 62.3182 506.252 62.1123C506.658 61.9064 506.979 61.5706 507.16 61.1615L514.676 44.0752C514.861 43.6536 514.936 43.1939 514.894 42.7372C514.852 42.2805 514.695 41.8411 514.436 41.4582C514.176 41.0754 513.824 40.7612 513.409 40.5436C512.995 40.3261 512.532 40.2121 512.061 40.2117Z" fill="#8AE500"/>
</svg>
